<mxfile host="app.diagrams.net" modified="2021-10-11T20:42:13.523Z" agent="5.0 (X11; Linux x86_64) AppleWebKit/537.36 (KHTML, like Gecko) Chrome/93.0.4577.82 Safari/537.36 OPR/79.0.4143.72" etag="2VnsUKlNKzrL7D2VEuHP" version="15.5.1" type="gitlab">
  <diagram id="TxEjbFlHL-WTOjGTeh2z" name="Page-1">
    <mxGraphModel dx="4419" dy="3397" grid="1" gridSize="10" guides="1" tooltips="1" connect="1" arrows="1" fold="1" page="1" pageScale="1" pageWidth="850" pageHeight="1100" math="0" shadow="0">
      <root>
        <mxCell id="0" />
        <mxCell id="1" parent="0" />
        <mxCell id="kI_aqljt8LC7W1-k-mAY-1" value="" style="rounded=1;whiteSpace=wrap;html=1;" vertex="1" parent="1">
          <mxGeometry x="40" y="-100" width="120" height="60" as="geometry" />
        </mxCell>
        <mxCell id="kI_aqljt8LC7W1-k-mAY-2" value="main.c" style="text;html=1;align=center;verticalAlign=middle;resizable=0;points=[];autosize=1;strokeColor=none;fillColor=none;" vertex="1" parent="1">
          <mxGeometry x="75" y="-130" width="50" height="20" as="geometry" />
        </mxCell>
        <mxCell id="kI_aqljt8LC7W1-k-mAY-3" value="" style="endArrow=classic;html=1;rounded=0;exitX=0.5;exitY=1;exitDx=0;exitDy=0;" edge="1" parent="1" source="kI_aqljt8LC7W1-k-mAY-1" target="kI_aqljt8LC7W1-k-mAY-4">
          <mxGeometry width="50" height="50" relative="1" as="geometry">
            <mxPoint x="330" y="380" as="sourcePoint" />
            <mxPoint x="290" as="targetPoint" />
          </mxGeometry>
        </mxCell>
        <mxCell id="kI_aqljt8LC7W1-k-mAY-4" value="&lt;div style=&quot;color: rgb(246 , 246 , 244) ; background-color: rgb(40 , 42 , 54) ; font-family: &amp;#34;droid sans mono&amp;#34; , monospace , monospace , &amp;#34;droid sans fallback&amp;#34; ; line-height: 19px ; font-size: 8px&quot;&gt;numTotalPalavras=0&lt;/div&gt;&lt;div style=&quot;color: rgb(246 , 246 , 244) ; background-color: rgb(40 , 42 , 54) ; font-family: &amp;#34;droid sans mono&amp;#34; , monospace , monospace , &amp;#34;droid sans fallback&amp;#34; ; line-height: 19px&quot;&gt;&lt;div style=&quot;font-family: &amp;#34;droid sans mono&amp;#34; , monospace , monospace , &amp;#34;droid sans fallback&amp;#34; ; line-height: 19px&quot;&gt;&lt;span style=&quot;font-size: 8px&quot;&gt;numPalavrasDiferentes=0&lt;/span&gt;&lt;br&gt;&lt;font size=&quot;1&quot;&gt;lista não criada&lt;/font&gt;&lt;/div&gt;&lt;/div&gt;" style="rounded=0;whiteSpace=wrap;html=1;" vertex="1" parent="1">
          <mxGeometry x="40" y="10" width="120" height="60" as="geometry" />
        </mxCell>
        <mxCell id="kI_aqljt8LC7W1-k-mAY-5" value="" style="endArrow=classic;html=1;rounded=0;fontSize=8;exitX=0.5;exitY=1;exitDx=0;exitDy=0;" edge="1" parent="1" source="kI_aqljt8LC7W1-k-mAY-4">
          <mxGeometry width="50" height="50" relative="1" as="geometry">
            <mxPoint x="170" y="350" as="sourcePoint" />
            <mxPoint x="100" y="140" as="targetPoint" />
            <Array as="points" />
          </mxGeometry>
        </mxCell>
        <mxCell id="kI_aqljt8LC7W1-k-mAY-6" value="&lt;font style=&quot;font-size: 10px&quot;&gt;Cria uma lista para guardar as palavras&amp;nbsp;&lt;/font&gt;" style="rounded=0;whiteSpace=wrap;html=1;fontSize=8;fillColor=#FFFFFF;strokeColor=#330000;" vertex="1" parent="1">
          <mxGeometry x="40" y="250" width="120" height="60" as="geometry" />
        </mxCell>
        <mxCell id="kI_aqljt8LC7W1-k-mAY-7" value="Lê uma paavra &lt;br&gt;do ficheiro&lt;br&gt;(fscanf)" style="shape=parallelogram;perimeter=parallelogramPerimeter;whiteSpace=wrap;html=1;fixedSize=1;fontSize=10;strokeColor=#330000;fillColor=#FFFFFF;" vertex="1" parent="1">
          <mxGeometry x="40" y="360" width="120" height="60" as="geometry" />
        </mxCell>
        <mxCell id="kI_aqljt8LC7W1-k-mAY-10" value="" style="endArrow=classic;html=1;rounded=0;fontSize=10;exitX=0.5;exitY=1;exitDx=0;exitDy=0;entryX=0.5;entryY=0;entryDx=0;entryDy=0;" edge="1" parent="1" source="kI_aqljt8LC7W1-k-mAY-6" target="kI_aqljt8LC7W1-k-mAY-7">
          <mxGeometry width="50" height="50" relative="1" as="geometry">
            <mxPoint x="400" y="420" as="sourcePoint" />
            <mxPoint x="450" y="370" as="targetPoint" />
          </mxGeometry>
        </mxCell>
        <mxCell id="kI_aqljt8LC7W1-k-mAY-30" style="edgeStyle=orthogonalEdgeStyle;rounded=0;orthogonalLoop=1;jettySize=auto;html=1;fontSize=10;" edge="1" parent="1" source="kI_aqljt8LC7W1-k-mAY-11">
          <mxGeometry relative="1" as="geometry">
            <mxPoint x="100" y="610" as="targetPoint" />
          </mxGeometry>
        </mxCell>
        <mxCell id="kI_aqljt8LC7W1-k-mAY-11" value="return do fscan = 1" style="rhombus;whiteSpace=wrap;html=1;fontSize=10;strokeColor=#330000;fillColor=#FFFFFF;" vertex="1" parent="1">
          <mxGeometry x="40" y="470" width="120" height="80" as="geometry" />
        </mxCell>
        <mxCell id="kI_aqljt8LC7W1-k-mAY-12" value="" style="endArrow=classic;html=1;rounded=0;fontSize=10;exitX=0.5;exitY=1;exitDx=0;exitDy=0;" edge="1" parent="1" source="kI_aqljt8LC7W1-k-mAY-7">
          <mxGeometry width="50" height="50" relative="1" as="geometry">
            <mxPoint x="440" y="430" as="sourcePoint" />
            <mxPoint x="100" y="470" as="targetPoint" />
          </mxGeometry>
        </mxCell>
        <mxCell id="kI_aqljt8LC7W1-k-mAY-13" value="" style="endArrow=classic;html=1;rounded=0;fontSize=10;exitX=1;exitY=0.5;exitDx=0;exitDy=0;" edge="1" parent="1" source="kI_aqljt8LC7W1-k-mAY-11">
          <mxGeometry width="50" height="50" relative="1" as="geometry">
            <mxPoint x="160" y="540" as="sourcePoint" />
            <mxPoint x="240" y="510" as="targetPoint" />
          </mxGeometry>
        </mxCell>
        <mxCell id="kI_aqljt8LC7W1-k-mAY-15" value="Sim" style="text;html=1;strokeColor=none;fillColor=none;align=center;verticalAlign=middle;whiteSpace=wrap;rounded=0;fontSize=10;" vertex="1" parent="1">
          <mxGeometry x="160" y="480" width="60" height="30" as="geometry" />
        </mxCell>
        <mxCell id="kI_aqljt8LC7W1-k-mAY-16" value="&lt;br&gt;Entra no testa palavra" style="rounded=0;whiteSpace=wrap;html=1;fontSize=10;strokeColor=#330000;fillColor=#FFFFFF;" vertex="1" parent="1">
          <mxGeometry x="240" y="480" width="120" height="60" as="geometry" />
        </mxCell>
        <mxCell id="kI_aqljt8LC7W1-k-mAY-21" style="edgeStyle=orthogonalEdgeStyle;rounded=0;orthogonalLoop=1;jettySize=auto;html=1;exitX=1;exitY=0.5;exitDx=0;exitDy=0;fontSize=10;" edge="1" parent="1">
          <mxGeometry relative="1" as="geometry">
            <mxPoint x="600" y="510" as="targetPoint" />
            <mxPoint x="530" y="510" as="sourcePoint" />
          </mxGeometry>
        </mxCell>
        <mxCell id="kI_aqljt8LC7W1-k-mAY-18" value="" style="endArrow=classic;html=1;rounded=0;fontSize=10;exitX=1;exitY=0.5;exitDx=0;exitDy=0;" edge="1" parent="1" source="kI_aqljt8LC7W1-k-mAY-16">
          <mxGeometry width="50" height="50" relative="1" as="geometry">
            <mxPoint x="360" y="530" as="sourcePoint" />
            <mxPoint x="410" y="510" as="targetPoint" />
          </mxGeometry>
        </mxCell>
        <mxCell id="kI_aqljt8LC7W1-k-mAY-19" value="" style="endArrow=classic;html=1;rounded=0;fontSize=10;exitX=0.5;exitY=1;exitDx=0;exitDy=0;" edge="1" parent="1">
          <mxGeometry width="50" height="50" relative="1" as="geometry">
            <mxPoint x="470" y="540" as="sourcePoint" />
            <mxPoint x="470" y="590" as="targetPoint" />
          </mxGeometry>
        </mxCell>
        <mxCell id="kI_aqljt8LC7W1-k-mAY-20" value="sim" style="text;html=1;strokeColor=none;fillColor=none;align=center;verticalAlign=middle;whiteSpace=wrap;rounded=0;fontSize=10;" vertex="1" parent="1">
          <mxGeometry x="530" y="480" width="60" height="30" as="geometry" />
        </mxCell>
        <mxCell id="kI_aqljt8LC7W1-k-mAY-23" style="edgeStyle=orthogonalEdgeStyle;rounded=0;orthogonalLoop=1;jettySize=auto;html=1;fontSize=10;" edge="1" parent="1" source="kI_aqljt8LC7W1-k-mAY-22">
          <mxGeometry relative="1" as="geometry">
            <mxPoint x="100" y="330" as="targetPoint" />
            <Array as="points">
              <mxPoint x="760" y="510" />
            </Array>
          </mxGeometry>
        </mxCell>
        <mxCell id="kI_aqljt8LC7W1-k-mAY-22" value="incOcorr(lp)&lt;br&gt;(aumenta ocorrencias)" style="rounded=0;whiteSpace=wrap;html=1;fontSize=10;strokeColor=#330000;fillColor=#FFFFFF;" vertex="1" parent="1">
          <mxGeometry x="600" y="480" width="120" height="60" as="geometry" />
        </mxCell>
        <mxCell id="kI_aqljt8LC7W1-k-mAY-24" value="não" style="text;html=1;strokeColor=none;fillColor=none;align=center;verticalAlign=middle;whiteSpace=wrap;rounded=0;fontSize=10;" vertex="1" parent="1">
          <mxGeometry x="480" y="550" width="60" height="30" as="geometry" />
        </mxCell>
        <mxCell id="kI_aqljt8LC7W1-k-mAY-28" style="edgeStyle=orthogonalEdgeStyle;rounded=0;orthogonalLoop=1;jettySize=auto;html=1;exitX=0.5;exitY=1;exitDx=0;exitDy=0;entryX=0.5;entryY=0;entryDx=0;entryDy=0;fontSize=10;" edge="1" parent="1" source="kI_aqljt8LC7W1-k-mAY-25" target="kI_aqljt8LC7W1-k-mAY-26">
          <mxGeometry relative="1" as="geometry" />
        </mxCell>
        <mxCell id="kI_aqljt8LC7W1-k-mAY-25" value="pal= criaPalavra()&lt;br&gt;cria novo nó para colocar na lista" style="rounded=0;whiteSpace=wrap;html=1;fontSize=10;strokeColor=#330000;fillColor=#FFFFFF;" vertex="1" parent="1">
          <mxGeometry x="410" y="590" width="120" height="60" as="geometry" />
        </mxCell>
        <mxCell id="kI_aqljt8LC7W1-k-mAY-29" style="edgeStyle=orthogonalEdgeStyle;rounded=0;orthogonalLoop=1;jettySize=auto;html=1;exitX=0.5;exitY=1;exitDx=0;exitDy=0;fontSize=10;" edge="1" parent="1" source="kI_aqljt8LC7W1-k-mAY-26">
          <mxGeometry relative="1" as="geometry">
            <mxPoint x="760" y="510" as="targetPoint" />
          </mxGeometry>
        </mxCell>
        <mxCell id="kI_aqljt8LC7W1-k-mAY-26" value="lp(lista) = criaNovoNolista" style="rounded=0;whiteSpace=wrap;html=1;fontSize=10;strokeColor=#330000;fillColor=#FFFFFF;" vertex="1" parent="1">
          <mxGeometry x="410" y="700" width="120" height="60" as="geometry" />
        </mxCell>
        <mxCell id="kI_aqljt8LC7W1-k-mAY-27" value="novaPal == getPalavra(pal)" style="rhombus;whiteSpace=wrap;html=1;fontSize=10;strokeColor=#330000;fillColor=#FFFFFF;" vertex="1" parent="1">
          <mxGeometry x="410" y="470" width="120" height="80" as="geometry" />
        </mxCell>
        <mxCell id="kI_aqljt8LC7W1-k-mAY-33" style="edgeStyle=orthogonalEdgeStyle;rounded=0;orthogonalLoop=1;jettySize=auto;html=1;entryX=0.5;entryY=0;entryDx=0;entryDy=0;fontSize=10;" edge="1" parent="1" source="kI_aqljt8LC7W1-k-mAY-32" target="kI_aqljt8LC7W1-k-mAY-6">
          <mxGeometry relative="1" as="geometry" />
        </mxCell>
        <mxCell id="kI_aqljt8LC7W1-k-mAY-32" value="abre ficheiro - entrada" style="strokeWidth=2;html=1;shape=mxgraph.flowchart.database;whiteSpace=wrap;fontSize=10;fillColor=#FFFFFF;" vertex="1" parent="1">
          <mxGeometry x="40" y="140" width="120" height="60" as="geometry" />
        </mxCell>
        <mxCell id="kI_aqljt8LC7W1-k-mAY-34" value="não" style="text;html=1;align=center;verticalAlign=middle;resizable=0;points=[];autosize=1;strokeColor=none;fillColor=none;fontSize=10;" vertex="1" parent="1">
          <mxGeometry x="115" y="560" width="30" height="20" as="geometry" />
        </mxCell>
        <mxCell id="kI_aqljt8LC7W1-k-mAY-37" style="edgeStyle=orthogonalEdgeStyle;rounded=0;orthogonalLoop=1;jettySize=auto;html=1;fontSize=10;" edge="1" parent="1" source="kI_aqljt8LC7W1-k-mAY-35">
          <mxGeometry relative="1" as="geometry">
            <mxPoint x="100" y="700" as="targetPoint" />
          </mxGeometry>
        </mxCell>
        <mxCell id="kI_aqljt8LC7W1-k-mAY-35" value="fecha ficheiro - entrada" style="strokeWidth=2;html=1;shape=mxgraph.flowchart.database;whiteSpace=wrap;fontSize=10;fillColor=#FFFFFF;" vertex="1" parent="1">
          <mxGeometry x="40" y="610" width="120" height="60" as="geometry" />
        </mxCell>
        <mxCell id="kI_aqljt8LC7W1-k-mAY-40" style="edgeStyle=orthogonalEdgeStyle;rounded=0;orthogonalLoop=1;jettySize=auto;html=1;fontSize=10;" edge="1" parent="1" source="kI_aqljt8LC7W1-k-mAY-39">
          <mxGeometry relative="1" as="geometry">
            <mxPoint x="100" y="800" as="targetPoint" />
          </mxGeometry>
        </mxCell>
        <mxCell id="kI_aqljt8LC7W1-k-mAY-39" value="abre ficherio - saida&amp;nbsp;" style="strokeWidth=2;html=1;shape=mxgraph.flowchart.database;whiteSpace=wrap;fontSize=10;fillColor=#FFFFFF;" vertex="1" parent="1">
          <mxGeometry x="40" y="700" width="120" height="60" as="geometry" />
        </mxCell>
        <mxCell id="kI_aqljt8LC7W1-k-mAY-42" style="edgeStyle=orthogonalEdgeStyle;rounded=0;orthogonalLoop=1;jettySize=auto;html=1;fontSize=10;entryX=0.5;entryY=0;entryDx=0;entryDy=0;" edge="1" parent="1" source="kI_aqljt8LC7W1-k-mAY-41" target="kI_aqljt8LC7W1-k-mAY-48">
          <mxGeometry relative="1" as="geometry">
            <mxPoint x="100" y="900" as="targetPoint" />
          </mxGeometry>
        </mxCell>
        <mxCell id="kI_aqljt8LC7W1-k-mAY-41" value="aux = lp" style="rounded=0;whiteSpace=wrap;html=1;fontSize=10;strokeColor=#330000;fillColor=#FFFFFF;" vertex="1" parent="1">
          <mxGeometry x="40" y="800" width="120" height="60" as="geometry" />
        </mxCell>
        <mxCell id="kI_aqljt8LC7W1-k-mAY-45" style="edgeStyle=orthogonalEdgeStyle;rounded=0;orthogonalLoop=1;jettySize=auto;html=1;fontSize=10;" edge="1" parent="1" source="kI_aqljt8LC7W1-k-mAY-43" target="kI_aqljt8LC7W1-k-mAY-44">
          <mxGeometry relative="1" as="geometry" />
        </mxCell>
        <mxCell id="kI_aqljt8LC7W1-k-mAY-43" value="escreveUmaPalavra((t_palavra)*getItemLista(aux), fpout) [escreve uma palavra, ficheiro de saida]" style="rounded=0;whiteSpace=wrap;html=1;fontSize=10;strokeColor=#330000;fillColor=#FFFFFF;" vertex="1" parent="1">
          <mxGeometry x="-175" y="1040" width="550" height="40" as="geometry" />
        </mxCell>
        <mxCell id="kI_aqljt8LC7W1-k-mAY-44" value="aux = getProxElemento(aux)" style="rounded=0;whiteSpace=wrap;html=1;fontSize=10;strokeColor=#330000;fillColor=#FFFFFF;" vertex="1" parent="1">
          <mxGeometry x="40" y="1130" width="120" height="60" as="geometry" />
        </mxCell>
        <mxCell id="kI_aqljt8LC7W1-k-mAY-49" style="edgeStyle=orthogonalEdgeStyle;rounded=0;orthogonalLoop=1;jettySize=auto;html=1;entryX=0.5;entryY=0;entryDx=0;entryDy=0;fontSize=10;" edge="1" parent="1" source="kI_aqljt8LC7W1-k-mAY-48" target="kI_aqljt8LC7W1-k-mAY-43">
          <mxGeometry relative="1" as="geometry" />
        </mxCell>
        <mxCell id="kI_aqljt8LC7W1-k-mAY-51" style="edgeStyle=orthogonalEdgeStyle;rounded=0;orthogonalLoop=1;jettySize=auto;html=1;fontSize=10;" edge="1" parent="1" source="kI_aqljt8LC7W1-k-mAY-48">
          <mxGeometry relative="1" as="geometry">
            <mxPoint x="510" y="1200" as="targetPoint" />
            <Array as="points">
              <mxPoint x="510" y="950" />
              <mxPoint x="510" y="1200" />
            </Array>
          </mxGeometry>
        </mxCell>
        <mxCell id="kI_aqljt8LC7W1-k-mAY-48" value="aux = NULL" style="rhombus;whiteSpace=wrap;html=1;fontSize=10;strokeColor=#330000;fillColor=#FFFFFF;" vertex="1" parent="1">
          <mxGeometry x="40" y="910" width="120" height="80" as="geometry" />
        </mxCell>
        <mxCell id="kI_aqljt8LC7W1-k-mAY-50" value="NÃO&amp;nbsp;" style="text;html=1;strokeColor=none;fillColor=none;align=center;verticalAlign=middle;whiteSpace=wrap;rounded=0;fontSize=10;" vertex="1" parent="1">
          <mxGeometry x="115" y="1000" width="60" height="30" as="geometry" />
        </mxCell>
        <mxCell id="kI_aqljt8LC7W1-k-mAY-52" value="SIM" style="text;html=1;strokeColor=none;fillColor=none;align=center;verticalAlign=middle;whiteSpace=wrap;rounded=0;fontSize=10;" vertex="1" parent="1">
          <mxGeometry x="175" y="920" width="60" height="30" as="geometry" />
        </mxCell>
        <mxCell id="kI_aqljt8LC7W1-k-mAY-53" style="edgeStyle=orthogonalEdgeStyle;rounded=0;orthogonalLoop=1;jettySize=auto;html=1;fontSize=10;entryX=0;entryY=0.5;entryDx=0;entryDy=0;" edge="1" parent="1" source="kI_aqljt8LC7W1-k-mAY-44" target="kI_aqljt8LC7W1-k-mAY-48">
          <mxGeometry relative="1" as="geometry">
            <mxPoint x="100" y="1190" as="sourcePoint" />
            <mxPoint x="-320" y="960" as="targetPoint" />
            <Array as="points">
              <mxPoint x="100" y="1240" />
              <mxPoint x="-320" y="1240" />
              <mxPoint x="-320" y="950" />
            </Array>
          </mxGeometry>
        </mxCell>
        <mxCell id="kI_aqljt8LC7W1-k-mAY-56" style="edgeStyle=orthogonalEdgeStyle;rounded=0;orthogonalLoop=1;jettySize=auto;html=1;fontSize=10;" edge="1" parent="1" source="kI_aqljt8LC7W1-k-mAY-55">
          <mxGeometry relative="1" as="geometry">
            <mxPoint x="510" y="1320" as="targetPoint" />
          </mxGeometry>
        </mxCell>
        <mxCell id="kI_aqljt8LC7W1-k-mAY-55" value="Limpa lista alocada" style="rounded=0;whiteSpace=wrap;html=1;fontSize=10;strokeColor=#330000;fillColor=#FFFFFF;" vertex="1" parent="1">
          <mxGeometry x="450" y="1200" width="120" height="60" as="geometry" />
        </mxCell>
        <mxCell id="kI_aqljt8LC7W1-k-mAY-59" style="edgeStyle=orthogonalEdgeStyle;rounded=0;orthogonalLoop=1;jettySize=auto;html=1;entryX=0.5;entryY=0;entryDx=0;entryDy=0;fontSize=10;" edge="1" parent="1" source="kI_aqljt8LC7W1-k-mAY-57" target="kI_aqljt8LC7W1-k-mAY-58">
          <mxGeometry relative="1" as="geometry" />
        </mxCell>
        <mxCell id="kI_aqljt8LC7W1-k-mAY-57" value="fecha ficherio - saida&amp;nbsp;" style="strokeWidth=2;html=1;shape=mxgraph.flowchart.database;whiteSpace=wrap;fontSize=10;fillColor=#FFFFFF;" vertex="1" parent="1">
          <mxGeometry x="450" y="1320" width="120" height="60" as="geometry" />
        </mxCell>
        <mxCell id="kI_aqljt8LC7W1-k-mAY-58" value="" style="rounded=1;whiteSpace=wrap;html=1;fontSize=10;strokeColor=#330000;fillColor=#FFFFFF;" vertex="1" parent="1">
          <mxGeometry x="450" y="1470" width="120" height="60" as="geometry" />
        </mxCell>
      </root>
    </mxGraphModel>
  </diagram>
</mxfile>
